<svg width="200" height="70" viewBox="0 0 200 70" fill="none" xmlns="http://www.w3.org/2000/svg">
<path d="M2.39616 45.7012H12.9264C12.9264 46.7317 12.7681 47.6829 12.3722 48.872L10.5512 53.9451C9.60109 56.4817 10.3928 58.3841 12.293 58.3841C14.1141 58.3841 15.46 56.9573 16.331 54.6585C17.8353 50.6951 17.3603 47.3659 15.0642 39.0427L14.4308 36.6646C12.4514 29.2927 11.1846 22.2378 13.5598 15.5793C16.806 6.62195 22.5066 2.5 30.345 2.5C39.1334 2.5 44.1214 9.71341 40.2419 20.6524C39.6085 22.3963 39.1334 23.7439 39.1334 25.0915H28.6823C28.6823 23.9024 28.7615 22.7927 29.3949 21.1281L31.4534 15.4207C32.4035 12.8841 31.2951 11.6159 29.6324 11.6159C27.4947 11.6159 26.307 13.122 25.2778 15.9756C23.6943 20.4146 25.1986 26.6768 26.307 30.7988L26.9404 33.1768C28.999 40.8659 30.6617 47.7622 28.0489 54.8963C24.7235 63.9329 18.4687 67.5 11.1054 67.5C2.00028 67.5 -2.27517 60.128 1.20853 50.2195C2.07946 47.7622 2.31698 46.811 2.39616 45.7012Z" fill="white"/>
<path d="M46.4067 3.29268H74.118L70.3967 13.5976H62.4792L43.1605 66.7073H31.2842L50.603 13.5976H42.6855L46.4067 3.29268Z" fill="white"/>
<path d="M76.4444 3.29268H87.7664C96.634 3.29268 102.81 11.5366 97.5049 26.0427C95.0505 32.7805 91.0918 37.4573 84.8369 41.5L82.0658 66.7073H70.427L74.465 43.3232H73.2774L65.2807 66.7073H53.4044L76.4444 3.29268ZM84.8369 12.8049L76.9194 34.6037H77.632C80.4823 34.6037 82.7784 33.3354 84.0452 30.0061L87.8456 19.7805C89.7458 14.7073 87.7664 12.8049 85.312 12.8049H84.8369Z" fill="white"/>
<path d="M107.998 3.29268H119.875L96.8347 66.7073H84.9585L107.998 3.29268Z" fill="white"/>
<path d="M105.074 66.7073L121.78 3.29268H133.498L123.601 36.9817H124.393L139.04 3.29268H150.758V4.08536L121.701 66.7073H105.074Z" fill="white"/>
<path d="M153.076 3.29268H174.453L170.653 13.5976H161.152L155.451 29.4512H163.764L159.964 39.7561H151.65L145.633 56.4024H155.134L151.413 66.7073H130.036L153.076 3.29268Z" fill="white"/>
<path d="M176.975 3.29268H188.297C197.165 3.29268 203.34 11.5366 198.036 26.0427C195.581 32.7805 191.622 37.4573 185.368 41.5L182.597 66.7073H170.958L174.996 43.3232H173.808L165.811 66.7073H153.935L176.975 3.29268ZM185.368 12.8049L177.45 34.6037H178.163C181.013 34.6037 183.309 33.3354 184.576 30.0061L188.376 19.7805C190.276 14.7073 188.297 12.8049 185.843 12.8049H185.368Z" fill="white"/>
</svg>
