<svg width="36" height="36" viewBox="0 0 36 36" fill="none" xmlns="http://www.w3.org/2000/svg">
<rect width="36" height="36" rx="18" fill="#8FFBB9"/>
<g clip-path="url(#clip0_541_9529)">
<path d="M29.522 12.1854C29.3863 11.6748 29.1189 11.2088 28.7465 10.8341C28.3741 10.4593 27.9099 10.1889 27.4002 10.05C25.5238 9.54541 18.0238 9.54541 18.0238 9.54541C18.0238 9.54541 10.5238 9.54541 8.64744 10.05C8.13773 10.1889 7.67346 10.4593 7.30109 10.8341C6.92872 11.2088 6.66131 11.6748 6.52562 12.1854C6.0238 14.07 6.0238 18 6.0238 18C6.0238 18 6.0238 21.93 6.52562 23.8145C6.66131 24.3251 6.92872 24.7911 7.30109 25.1658C7.67346 25.5406 8.13773 25.811 8.64744 25.95C10.5238 26.4545 18.0238 26.4545 18.0238 26.4545C18.0238 26.4545 25.5238 26.4545 27.4002 25.95C27.9099 25.811 28.3741 25.5406 28.7465 25.1658C29.1189 24.7911 29.3863 24.3251 29.522 23.8145C30.0238 21.93 30.0238 18 30.0238 18C30.0238 18 30.0238 14.07 29.522 12.1854Z" fill="#121312"/>
<path d="M15.5693 21.5689V14.4316L21.842 18.0003L15.5693 21.5689Z" fill="#8FFBB9"/>
</g>
<defs>
<clipPath id="clip0_541_9529">
<rect width="24" height="24" fill="white" transform="translate(6 6)"/>
</clipPath>
</defs>
</svg>
